<svg version="1.0" xmlns="http://www.w3.org/2000/svg"
     width="329.000000pt" height="329.000000pt" viewBox="0 0 329.000000 329.000000"
     preserveAspectRatio="xMidYMid meet">
    <metadata>
        Created by potrace 1.11, written by Peter Selinger 2001-2013
    </metadata>
    <g transform="translate(0.000000,329.000000) scale(0.100000,-0.100000)"
       fill="#1c2a6a" stroke="none">
        <path d="M1499 3286 c-2 -2 -35 -7 -73 -10 -80 -8 -262 -54 -359 -90 -391
-148 -715 -444 -900 -823 -53 -108 -116 -294 -133 -390 -2 -13 -6 -35 -9 -50
-24 -135 -25 -400 -1 -544 104 -636 584 -1163 1201 -1322 167 -42 237 -51 415
-51 169 0 236 6 361 34 363 81 697 289 932 580 175 216 303 520 344 811 10 72
10 358 0 434 -87 654 -583 1211 -1224 1374 -43 11 -100 23 -128 27 -27 3 -54
9 -59 12 -11 6 -361 14 -367 8z m309 -130 c219 -20 466 -109 666 -239 86 -57
99 -66 174 -132 292 -257 469 -604 509 -1000 13 -125 5 -300 -18 -419 -6 -28
-13 -62 -15 -76 -11 -52 -67 -208 -105 -289 -143 -306 -402 -569 -704 -716
-103 -50 -228 -98 -285 -109 -14 -2 -56 -11 -95 -19 -38 -8 -99 -18 -135 -22
-69 -7 -262 -8 -295 -1 -11 2 -47 7 -80 11 -152 18 -351 83 -490 159 -416 228
-688 597 -782 1061 -27 136 -25 444 5 581 43 197 115 375 215 526 74 113 95
137 217 258 248 246 578 400 911 426 46 4 85 7 86 8 4 4 156 -2 221 -8z"/>
        <path d="M450 2420 c-4 -3 161 -427 367 -943 282 -705 381 -942 398 -953 47
-30 53 -21 165 251 34 83 79 194 101 247 29 68 39 104 34 120 -4 13 -50 129
-102 258 -53 129 -98 241 -100 248 -4 9 13 12 66 12 39 0 71 3 71 7 0 25 -57
152 -70 155 -8 2 -43 3 -76 3 l-61 -1 -80 198 c-44 109 -75 198 -69 199 6 1
53 2 103 3 l93 2 76 -181 c90 -212 97 -231 114 -270 106 -254 504 -1195 516
-1220 19 -40 47 -52 75 -33 18 12 279 585 279 613 0 6 -45 123 -100 260 -55
137 -100 253 -100 257 0 5 50 7 111 6 l111 -3 44 -110 c24 -60 44 -116 44
-124 0 -41 29 27 280 654 40 99 78 194 86 210 13 30 54 134 54 138 0 6 -809 1
-815 -5 -4 -3 18 -66 49 -140 30 -73 84 -203 119 -288 36 -85 63 -158 61 -161
-2 -3 -52 -6 -111 -5 l-107 1 -118 294 c-64 161 -120 296 -123 299 -6 7 -1374
9 -1385 2z"/>
    </g>
</svg>
