<?xml version="1.0" encoding="UTF-8"?>
<!-- Generator: Adobe Illustrator 19.0.0, SVG Export Plug-In . SVG Version: 6.00 Build 0)  -->
<svg version="1.1" id="Layer_1" xmlns="http://www.w3.org/2000/svg" xmlns:xlink="http://www.w3.org/1999/xlink" x="0px" y="0px" viewBox="0 0 355 133" style="enable-background:new 0 0 355 133;" xml:space="preserve">
<style type="text/css">
	.st0{fill:#232E6A;}
	.st1{fill:#9D9D9C;}
</style>
<path class="st0" d="M22.8,69.1v3.6H8.6v24.7H4.4V72.7v-3.6v-2.3c0-3.7,1-6.2,2.9-7.6c1.9-1.4,4.7-2.1,8.3-2.1  c1.2,0,2.4-0.1,3.6-0.1c1.2,0,2.4,0,3.6,0v3.6H17c-2.5,0-4.5,0.4-6.1,1c-1.6,0.6-2.4,2.4-2.4,5.3v2.3H22.8z"/>
<path class="st0" d="M32.5,56.8v17.9c0.9-2.2,2.3-3.8,4.3-4.5c2-0.8,4.1-1.3,6.2-1.4c0.6,0,1.1,0,1.7,0c0.5,0,1.1,0,1.6,0  c4.3,0,8.2,0.5,11.6,1.4c3.4,0.9,5.1,4.2,5.1,9.7v17.6h-4.2V79.8c0-1.4-0.2-2.7-0.6-3.8c-0.4-1.1-1.4-1.9-2.9-2.5  c-1-0.4-2-0.6-3.1-0.8c-1.1-0.1-2.2-0.2-3.3-0.3c-0.3,0-0.6,0-1,0c-0.3,0-0.6,0-1,0c-0.6,0-1.3,0-2,0c-0.7,0-1.4,0-2.1,0.1  c-2.6,0.2-5,0.8-7.2,1.8c-2.2,1-3.2,3.2-3.2,6.5v16.6h-4.2V56.8H32.5z"/>
<polygon class="st1" points="119.5,69.1 124.3,69.1 111.4,97.4 105.1,97.4 95.7,72.3 86.4,97.4 80.1,97.4 67.1,69.1 71.8,69.1   83.2,94.3 92.6,69.1 99.1,69.1 108.4,94.3 "/>
<path class="st1" d="M159.7,79.8c0-0.2,0-0.4,0-0.7c0-0.8-0.2-1.6-0.4-2.4c-0.2-0.8-0.7-1.5-1.4-2.1c-0.7-0.7-1.6-1.2-2.7-1.5  c-1.1-0.3-2.3-0.5-3.5-0.6c-0.6,0-1.2-0.1-1.8-0.1c-0.6,0-1.2,0-1.7,0h-3.3c-0.6,0-1.2,0.1-1.9,0.1c-0.7,0-1.3,0-2,0.1  c-1.2,0.1-2.5,0.3-3.6,0.6c-1.2,0.3-2.2,0.8-2.9,1.4c-0.6,0.5-1.1,1.1-1.3,1.9c-0.3,0.7-0.4,1.5-0.5,2.3c0,0.2-0.1,0.5-0.1,0.8  c0,0.3,0,0.5,0,0.8h27.3C159.7,80.2,159.7,80,159.7,79.8z M132.2,83.9c0.1,2.4,0.4,4.5,1.1,6.2c0.6,1.8,2.3,2.9,4.9,3.5  c0.7,0.2,1.5,0.3,2.3,0.4c0.8,0.1,1.6,0.1,2.3,0.1c0.6,0,1.2,0.1,1.8,0.1c0.6,0,1.2,0,1.7,0h2.3c0.4,0,0.9,0.1,1.3,0.1  c0.4,0,0.9,0,1.3-0.1c1,0,2.1-0.1,3.1-0.3c1-0.1,1.9-0.4,2.6-0.7c0.9-0.4,1.6-1,2-1.7c0.4-0.7,0.7-1.5,0.8-2.5l4.5-0.1  c0,3.4-1.2,5.6-3.6,6.7c-2.3,1.1-4.9,1.8-7.8,2c-0.8,0-1.6,0.1-2.4,0.1c-0.8,0-1.6,0-2.3,0c-5.8,0-10.6-0.6-14.4-1.8  c-3.7-1.2-5.6-5.4-5.6-12.7c0-6,1.2-9.9,3.5-11.8c2.3-1.9,6.3-2.9,12-2.9c0.2,0,0.5,0,0.8,0c0.3,0,0.5,0,0.8,0  c0.2,0,0.5,0.1,0.7,0.1c0.2,0,0.4,0,0.7,0c0.2,0,0.3,0,0.5,0s0.3,0,0.5,0c5.2,0.2,9.3,0.9,12.3,2.2c2.9,1.3,4.4,5.1,4.4,11.6  c0,0.1,0,0.2,0,0.4c0,0.1,0,0.2,0,0.4c0,0.1-0.1,0.2-0.1,0.4c0,0.1,0,0.2,0,0.4H132.2z"/>
<path class="st1" d="M204.7,56.8v16.9c-0.4-0.9-1-1.7-1.6-2.3c-0.6-0.7-1.4-1.2-2.3-1.6c-0.7-0.3-1.5-0.5-2.6-0.6  c-1-0.1-2.1-0.2-3.2-0.3c-0.8,0-1.5-0.1-2.3-0.1c-0.7,0-1.4,0-2.1-0.1l-3.3,0.1c-5.8,0-9.7,1-11.9,3c-2.2,2-3.3,5.9-3.3,11.9  c0,6.7,1.5,10.7,4.4,12.1c2.9,1.4,7.3,2.1,13.1,2.1c0.3,0,0.6,0,1,0c0.3,0,0.6,0,1,0.1c0.3,0,0.7,0,1,0c0.3,0,0.7,0,1,0  c0.4,0,0.8,0,1.2,0c0.4,0,0.9,0,1.3-0.1c1.7-0.1,3.4-0.5,5-1.1c1.6-0.6,2.8-1.8,3.6-3.7v4.3h4.2V56.8H204.7z M201.1,92.7  c-2.3,1-5.8,1.5-10.5,1.5c-0.4,0-0.9,0-1.3,0c-0.4,0-0.9,0-1.3-0.1c-0.5,0-0.9,0-1.4,0c-0.4,0-0.9-0.1-1.3-0.1c-3.7-0.2-6-1.1-7-2.7  c-1-1.6-1.5-4.1-1.5-7.5c0,0,0,0,0,0v-0.1c0,0,0,0,0,0c0-5.4,1-8.6,2.9-9.7c1.9-1,5.2-1.6,9.8-1.6c1.4,0,2.8,0,4.2,0.1  c1.4,0.1,2.7,0.2,4.1,0.4c3.2,0.5,5.1,1.6,5.8,3.5c0.7,1.8,1.1,4.2,1.1,6.9C204.6,88.6,203.5,91.7,201.1,92.7z"/>
<path class="st1" d="M249.3,79.8c0-0.2,0-0.4,0-0.7c0-0.8-0.2-1.6-0.4-2.4c-0.2-0.8-0.7-1.5-1.4-2.1c-0.7-0.7-1.6-1.2-2.7-1.5  c-1.1-0.3-2.3-0.5-3.5-0.6c-0.6,0-1.2-0.1-1.8-0.1c-0.6,0-1.2,0-1.7,0h-3.3c-0.6,0-1.2,0.1-1.9,0.1c-0.7,0-1.3,0-2,0.1  c-1.2,0.1-2.5,0.3-3.6,0.6c-1.2,0.3-2.2,0.8-2.9,1.4c-0.6,0.5-1.1,1.1-1.3,1.9c-0.3,0.7-0.4,1.5-0.5,2.3c0,0.2-0.1,0.5-0.1,0.8  c0,0.3,0,0.5,0,0.8h27.3C249.4,80.2,249.3,80,249.3,79.8z M221.8,83.9c0.1,2.4,0.4,4.5,1.1,6.2c0.6,1.8,2.3,2.9,4.9,3.5  c0.7,0.2,1.5,0.3,2.3,0.4c0.8,0.1,1.6,0.1,2.3,0.1c0.6,0,1.2,0.1,1.8,0.1c0.6,0,1.2,0,1.7,0h2.3c0.4,0,0.9,0.1,1.3,0.1  c0.4,0,0.9,0,1.3-0.1c1,0,2.1-0.1,3.1-0.3c1-0.1,1.9-0.4,2.6-0.7c0.9-0.4,1.6-1,2-1.7c0.4-0.7,0.7-1.5,0.8-2.5l4.5-0.1  c0,3.4-1.2,5.6-3.6,6.7c-2.3,1.1-4.9,1.8-7.8,2c-0.8,0-1.6,0.1-2.4,0.1c-0.8,0-1.6,0-2.3,0c-5.8,0-10.6-0.6-14.4-1.8  c-3.7-1.2-5.6-5.4-5.6-12.7c0-6,1.2-9.9,3.5-11.8c2.3-1.9,6.3-2.9,12-2.9c0.2,0,0.5,0,0.8,0c0.3,0,0.5,0,0.8,0  c0.2,0,0.5,0.1,0.7,0.1s0.4,0,0.7,0c0.2,0,0.3,0,0.5,0c0.2,0,0.3,0,0.5,0c5.2,0.2,9.3,0.9,12.3,2.2c2.9,1.3,4.4,5.1,4.4,11.6  c0,0.1,0,0.2,0,0.4c0,0.1,0,0.2,0,0.4c0,0.1-0.1,0.2-0.1,0.4c0,0.1,0,0.2,0,0.4H221.8z"/>
<rect x="262.7" y="56.8" class="st1" width="4.2" height="40.6"/>
<g>
	<path class="st0" d="M321.8,25.4l6,14.4h-5.4l-5.7-14.3l0-0.1h-0.1H283l17.6,43.9c0.4,1.1,0.8,1.9,1.6,1.9c0.8,0,1.1-0.6,1.1-0.6   l5.8-14l0-0.1l0-0.1l-5.1-12.7h3.6l-1.5-3.9h-3.6l-3.9-9.6h5L320,69.4c0.4,1,0.8,1.9,1.6,1.9c0.8,0,1.2-0.8,1.6-1.9l5.7-13l0-0.1   l0-0.1l-5-12.5h5.5l2.2,5.6l0.2,0.4l0.2-0.4l9.7-24L321.8,25.4z"/>
	<path class="st0" d="M312,4.6c-10.5,0-20.5,4.1-27.9,11.6c-7.5,7.5-11.6,17.4-11.6,27.9c0,10.5,4.1,20.5,11.6,27.9   c7.5,7.5,17.4,11.6,27.9,11.6s20.5-4.1,27.9-11.6c7.5-7.5,11.6-17.4,11.6-27.9C351.5,22.3,333.7,4.6,312,4.6z M312,80.5   c-9.7,0-18.9-3.8-25.8-10.7c-6.9-6.9-10.7-16.1-10.7-25.8c0-9.7,3.8-18.9,10.7-25.8c6.9-6.9,16.1-10.7,25.8-10.7   c20.1,0,36.5,16.4,36.5,36.5S332.1,80.5,312,80.5z"/>
</g>
<g>
	<path d="M9.7,128.5c-0.9,0-1.6-0.1-2.3-0.3c-0.7-0.2-1.2-0.6-1.7-1c-0.5-0.5-0.9-1.1-1.1-1.9c-0.2-0.7-0.3-1.6-0.3-2.7v-9.3h2v9.3   c0,0.7,0,1.3,0.1,1.7c0.1,0.5,0.3,0.9,0.5,1.3c0.3,0.4,0.6,0.7,1.1,0.9s1,0.3,1.7,0.3c0.6,0,1.2-0.1,1.7-0.3   c0.5-0.2,0.9-0.5,1.1-0.9c0.2-0.4,0.4-0.8,0.5-1.3c0.1-0.5,0.1-1,0.1-1.7v-9.3h2v9.3c0,1-0.1,1.9-0.3,2.7c-0.2,0.7-0.6,1.4-1.1,1.9   c-0.5,0.5-1,0.8-1.7,1C11.4,128.4,10.7,128.5,9.7,128.5z"/>
	<path d="M29.2,128.2H27l-6.6-12.9v12.9h-1.8v-14.9h2.8l6,11.8v-11.8h1.8V128.2z"/>
	<path d="M37.9,128.2h-5.8v-1.5H34v-11.8h-1.9v-1.5h5.8v1.5H36v11.8h1.9V128.2z"/>
	<path d="M51.7,113.3l-5.1,14.9h-2.1l-5.1-14.9h2.1l4.2,12.4l4.2-12.4H51.7z"/>
	<path d="M53.6,128.2v-14.9h9.3v1.8h-7.4v4.1h6.9v1.8h-6.9v5.6h7.4v1.7H53.6z"/>
	<path d="M77.2,128.2h-2.6l-4.7-5.9h-2.3v5.9h-2v-14.9h3.8c0.9,0,1.6,0,2.2,0.1c0.6,0.1,1.1,0.3,1.6,0.7c0.5,0.3,0.9,0.8,1.2,1.3   c0.3,0.5,0.5,1.2,0.5,2c0,1.1-0.3,2-0.8,2.7c-0.6,0.7-1.3,1.3-2.3,1.6L77.2,128.2z M72.9,117.5c0-0.4-0.1-0.8-0.2-1.1   c-0.2-0.3-0.4-0.6-0.7-0.8c-0.3-0.2-0.6-0.3-1-0.4c-0.4-0.1-0.8-0.1-1.4-0.1h-2v5.6h1.8c0.6,0,1.1,0,1.5-0.1   c0.5-0.1,0.8-0.3,1.2-0.6c0.3-0.3,0.5-0.6,0.6-1C72.8,118.4,72.9,118,72.9,117.5z"/>
	<path d="M83,128.5c-1.1,0-2-0.1-2.8-0.3c-0.8-0.2-1.5-0.5-2.1-0.8v-2.5h0.1c0.7,0.6,1.4,1.1,2.2,1.4c0.8,0.3,1.6,0.5,2.4,0.5   c1.1,0,1.9-0.2,2.5-0.7c0.6-0.5,0.8-1.1,0.8-1.8c0-0.6-0.1-1.1-0.4-1.5c-0.3-0.4-0.8-0.7-1.4-0.8c-0.5-0.1-0.9-0.2-1.3-0.3   c-0.4-0.1-0.9-0.2-1.4-0.4c-0.5-0.1-1-0.3-1.4-0.5c-0.4-0.2-0.8-0.5-1.1-0.8c-0.3-0.3-0.5-0.7-0.7-1.2c-0.2-0.4-0.3-1-0.3-1.5   c0-1.2,0.5-2.2,1.4-3c0.9-0.8,2.1-1.2,3.6-1.2c0.8,0,1.6,0.1,2.4,0.3c0.7,0.2,1.4,0.4,2.1,0.7v2.4h-0.1c-0.5-0.4-1.1-0.8-1.8-1.1   c-0.7-0.3-1.5-0.5-2.3-0.5c-0.9,0-1.7,0.2-2.2,0.6c-0.6,0.4-0.8,1-0.8,1.7c0,0.6,0.2,1.1,0.5,1.5c0.3,0.4,0.8,0.6,1.5,0.8   c0.4,0.1,0.9,0.2,1.5,0.4c0.6,0.1,1.1,0.3,1.5,0.4c1,0.3,1.8,0.8,2.3,1.4c0.5,0.6,0.7,1.4,0.7,2.3c0,0.6-0.1,1.2-0.4,1.7   c-0.2,0.6-0.6,1-1,1.4c-0.5,0.4-1,0.8-1.6,1C84.7,128.3,83.9,128.5,83,128.5z"/>
	<path d="M96,128.2h-5.8v-1.5h1.9v-11.8h-1.9v-1.5H96v1.5h-1.9v11.8H96V128.2z"/>
	<path d="M102.4,128.2V115h-5v-1.8h12v1.8h-5v13.2H102.4z"/>
	<path d="M121.2,113.3l-5,8.3v6.6h-2v-6.4l-5-8.5h2.2l3.8,6.5l3.9-6.5H121.2z"/>
	<path d="M140.5,115c0.6,0.7,1,1.5,1.3,2.4c0.3,1,0.5,2.1,0.5,3.3c0,1.2-0.2,2.3-0.5,3.3c-0.3,1-0.8,1.8-1.3,2.5   c-0.6,0.7-1.3,1.2-2.1,1.5c-0.8,0.3-1.7,0.5-2.7,0.5c-1,0-1.9-0.2-2.7-0.5c-0.8-0.3-1.5-0.8-2.1-1.5c-0.6-0.7-1-1.5-1.3-2.4   c-0.3-1-0.5-2.1-0.5-3.3c0-1.3,0.2-2.4,0.5-3.3c0.3-0.9,0.8-1.8,1.3-2.4c0.6-0.7,1.3-1.2,2.1-1.5c0.8-0.3,1.7-0.5,2.7-0.5   c1,0,1.9,0.2,2.7,0.5C139.3,113.9,140,114.3,140.5,115z M140.3,120.7c0-1-0.1-1.9-0.3-2.6c-0.2-0.8-0.5-1.4-0.9-1.9   c-0.4-0.5-0.9-0.9-1.4-1.2c-0.6-0.3-1.2-0.4-1.9-0.4c-0.7,0-1.4,0.1-1.9,0.4s-1,0.6-1.4,1.2c-0.4,0.5-0.7,1.1-0.9,1.9   c-0.2,0.8-0.3,1.6-0.3,2.6c0,2,0.4,3.4,1.2,4.5c0.8,1,1.9,1.6,3.3,1.6c1.4,0,2.5-0.5,3.3-1.6C139.9,124.2,140.3,122.7,140.3,120.7z   "/>
	<path d="M153.9,115h-7v4.2h6.7v1.8H147v7.2h-2v-14.9h8.9V115z"/>
	<path d="M161.5,128.2l5-14.9h2.4l5,14.9h-2.1l-1.3-4.1h-5.7l-1.3,4.1H161.5z M170,122.3l-2.3-7l-2.3,7H170z"/>
	<path d="M185.4,117.8c0,0.6-0.1,1.3-0.3,1.8c-0.2,0.6-0.6,1.1-1,1.5c-0.5,0.5-1.1,0.9-1.8,1.2c-0.7,0.3-1.6,0.4-2.6,0.4h-1.7v5.6   h-2v-14.9h3.8c0.9,0,1.6,0.1,2.3,0.2c0.6,0.1,1.2,0.4,1.6,0.7c0.6,0.4,1,0.9,1.3,1.4C185.2,116.2,185.4,116.9,185.4,117.8z    M183.3,117.8c0-0.5-0.1-1-0.3-1.3c-0.2-0.4-0.4-0.7-0.8-0.9c-0.3-0.2-0.7-0.3-1.1-0.4c-0.4-0.1-0.9-0.1-1.6-0.1h-1.7v5.9h1.4   c0.8,0,1.5-0.1,2-0.2c0.5-0.1,0.9-0.4,1.2-0.7c0.3-0.3,0.5-0.6,0.6-1C183.2,118.7,183.3,118.3,183.3,117.8z"/>
	<path d="M197.2,117.8c0,0.6-0.1,1.3-0.3,1.8c-0.2,0.6-0.6,1.1-1,1.5c-0.5,0.5-1.1,0.9-1.8,1.2c-0.7,0.3-1.6,0.4-2.6,0.4h-1.7v5.6   h-2v-14.9h3.8c0.9,0,1.6,0.1,2.3,0.2c0.6,0.1,1.2,0.4,1.6,0.7c0.6,0.4,1,0.9,1.3,1.4C197,116.2,197.2,116.9,197.2,117.8z    M195.1,117.8c0-0.5-0.1-1-0.3-1.3c-0.2-0.4-0.4-0.7-0.8-0.9c-0.3-0.2-0.7-0.3-1.1-0.4c-0.4-0.1-0.9-0.1-1.6-0.1h-1.7v5.9h1.4   c0.8,0,1.5-0.1,2-0.2c0.5-0.1,0.9-0.4,1.2-0.7c0.3-0.3,0.5-0.6,0.6-1C195,118.7,195.1,118.3,195.1,117.8z"/>
	<path d="M208.2,128.2h-8.6v-14.9h2v13.2h6.7V128.2z"/>
	<path d="M215.5,128.2h-5.8v-1.5h1.9v-11.8h-1.9v-1.5h5.8v1.5h-1.9v11.8h1.9V128.2z"/>
	<path d="M218.4,128.2v-14.9h9.3v1.8h-7.4v4.1h6.9v1.8h-6.9v5.6h7.4v1.7H218.4z"/>
	<path d="M242.2,120.7c0,1.4-0.3,2.6-0.8,3.7c-0.6,1.1-1.3,1.9-2.2,2.6c-0.8,0.5-1.5,0.8-2.3,1c-0.8,0.2-1.8,0.2-3,0.2h-3.4v-14.9   h3.4c1.4,0,2.5,0.1,3.3,0.3c0.8,0.2,1.5,0.5,2,0.9c1,0.6,1.7,1.5,2.2,2.5C241.9,118,242.2,119.3,242.2,120.7z M240.1,120.7   c0-1.1-0.2-2.1-0.6-2.9c-0.4-0.8-0.9-1.4-1.7-1.9c-0.5-0.3-1.1-0.5-1.7-0.7c-0.6-0.1-1.3-0.2-2.2-0.2h-1.5v11.5h1.5   c0.9,0,1.7-0.1,2.3-0.2c0.7-0.1,1.3-0.4,1.8-0.8c0.7-0.5,1.2-1.1,1.6-1.9C239.9,122.8,240.1,121.9,240.1,120.7z"/>
	<path d="M255.9,128.5c-1.1,0-2-0.1-2.8-0.3c-0.8-0.2-1.5-0.5-2.1-0.8v-2.5h0.1c0.7,0.6,1.4,1.1,2.2,1.4c0.8,0.3,1.6,0.5,2.4,0.5   c1.1,0,1.9-0.2,2.5-0.7c0.6-0.5,0.8-1.1,0.8-1.8c0-0.6-0.1-1.1-0.4-1.5c-0.3-0.4-0.8-0.7-1.4-0.8c-0.5-0.1-0.9-0.2-1.3-0.3   c-0.4-0.1-0.9-0.2-1.4-0.4c-0.5-0.1-1-0.3-1.4-0.5c-0.4-0.2-0.8-0.5-1.1-0.8c-0.3-0.3-0.5-0.7-0.7-1.2c-0.2-0.4-0.3-1-0.3-1.5   c0-1.2,0.5-2.2,1.4-3c0.9-0.8,2.1-1.2,3.6-1.2c0.8,0,1.6,0.1,2.4,0.3c0.7,0.2,1.4,0.4,2.1,0.7v2.4h-0.1c-0.5-0.4-1.1-0.8-1.8-1.1   c-0.7-0.3-1.5-0.5-2.3-0.5c-0.9,0-1.7,0.2-2.2,0.6c-0.6,0.4-0.8,1-0.8,1.7c0,0.6,0.2,1.1,0.5,1.5c0.3,0.4,0.8,0.6,1.5,0.8   c0.4,0.1,0.9,0.2,1.5,0.4c0.6,0.1,1.1,0.3,1.5,0.4c1,0.3,1.8,0.8,2.3,1.4c0.5,0.6,0.7,1.4,0.7,2.3c0,0.6-0.1,1.2-0.4,1.7   c-0.2,0.6-0.6,1-1,1.4c-0.5,0.4-1,0.8-1.6,1C257.6,128.3,256.8,128.5,255.9,128.5z"/>
	<path d="M269.5,128.5c-1,0-1.9-0.2-2.7-0.5c-0.8-0.3-1.5-0.8-2.1-1.5c-0.6-0.6-1.1-1.5-1.4-2.4c-0.3-1-0.5-2.1-0.5-3.3   c0-1.3,0.2-2.3,0.5-3.3c0.3-0.9,0.8-1.7,1.4-2.4c0.6-0.7,1.3-1.2,2.1-1.5c0.8-0.4,1.7-0.5,2.7-0.5c0.5,0,1,0,1.4,0.1   c0.4,0.1,0.8,0.2,1.2,0.3c0.3,0.1,0.6,0.2,1,0.4c0.3,0.2,0.7,0.3,1,0.5v2.4H274c-0.2-0.2-0.4-0.3-0.7-0.6c-0.3-0.2-0.6-0.4-1-0.7   c-0.4-0.2-0.8-0.4-1.2-0.5c-0.4-0.1-1-0.2-1.6-0.2c-0.6,0-1.2,0.1-1.8,0.4c-0.6,0.3-1.1,0.6-1.5,1.2c-0.4,0.5-0.7,1.1-1,1.9   c-0.2,0.8-0.4,1.6-0.4,2.6c0,1,0.1,1.9,0.4,2.6c0.2,0.7,0.6,1.4,1,1.9c0.4,0.5,0.9,0.9,1.5,1.1c0.6,0.3,1.2,0.4,1.8,0.4   c0.6,0,1.1-0.1,1.6-0.2c0.5-0.1,0.9-0.3,1.3-0.5c0.4-0.2,0.7-0.4,1-0.6c0.3-0.2,0.5-0.4,0.6-0.6h0.2v2.4c-0.3,0.2-0.6,0.3-0.9,0.4   c-0.3,0.1-0.6,0.3-1.1,0.4c-0.4,0.1-0.8,0.2-1.2,0.3C270.6,128.4,270.1,128.5,269.5,128.5z"/>
	<path d="M281.7,128.2h-5.8v-1.5h1.9v-11.8h-1.9v-1.5h5.8v1.5h-1.9v11.8h1.9V128.2z"/>
	<path d="M284.7,128.2v-14.9h9.3v1.8h-7.4v4.1h6.9v1.8h-6.9v5.6h7.4v1.7H284.7z"/>
	<path d="M307.4,128.2h-2.2l-6.6-12.9v12.9h-1.8v-14.9h2.8l6,11.8v-11.8h1.8V128.2z"/>
	<path d="M316.7,128.5c-1,0-1.9-0.2-2.7-0.5c-0.8-0.3-1.5-0.8-2.1-1.5c-0.6-0.6-1.1-1.5-1.4-2.4c-0.3-1-0.5-2.1-0.5-3.3   c0-1.3,0.2-2.3,0.5-3.3c0.3-0.9,0.8-1.7,1.4-2.4c0.6-0.7,1.3-1.2,2.1-1.5c0.8-0.4,1.7-0.5,2.7-0.5c0.5,0,1,0,1.4,0.1   c0.4,0.1,0.8,0.2,1.2,0.3c0.3,0.1,0.6,0.2,1,0.4c0.3,0.2,0.7,0.3,1,0.5v2.4h-0.2c-0.2-0.2-0.4-0.3-0.7-0.6c-0.3-0.2-0.6-0.4-1-0.7   c-0.4-0.2-0.8-0.4-1.2-0.5c-0.4-0.1-1-0.2-1.6-0.2c-0.6,0-1.2,0.1-1.8,0.4c-0.6,0.3-1.1,0.6-1.5,1.2c-0.4,0.5-0.7,1.1-1,1.9   c-0.2,0.8-0.4,1.6-0.4,2.6c0,1,0.1,1.9,0.4,2.6c0.2,0.7,0.6,1.4,1,1.9c0.4,0.5,0.9,0.9,1.5,1.1c0.6,0.3,1.2,0.4,1.8,0.4   c0.6,0,1.1-0.1,1.6-0.2c0.5-0.1,0.9-0.3,1.3-0.5c0.4-0.2,0.7-0.4,1-0.6c0.3-0.2,0.5-0.4,0.6-0.6h0.2v2.4c-0.3,0.2-0.6,0.3-0.9,0.4   c-0.3,0.1-0.6,0.3-1.1,0.4c-0.4,0.1-0.8,0.2-1.2,0.3C317.8,128.4,317.3,128.5,316.7,128.5z"/>
	<path d="M323.7,128.2v-14.9h9.3v1.8h-7.4v4.1h6.9v1.8h-6.9v5.6h7.4v1.7H323.7z"/>
	<path d="M339.9,128.5c-1.1,0-2-0.1-2.8-0.3c-0.8-0.2-1.5-0.5-2.1-0.8v-2.5h0.1c0.7,0.6,1.4,1.1,2.2,1.4c0.8,0.3,1.6,0.5,2.4,0.5   c1.1,0,1.9-0.2,2.5-0.7c0.6-0.5,0.8-1.1,0.8-1.8c0-0.6-0.1-1.1-0.4-1.5c-0.3-0.4-0.8-0.7-1.4-0.8c-0.5-0.1-0.9-0.2-1.3-0.3   c-0.4-0.1-0.9-0.2-1.4-0.4c-0.5-0.1-1-0.3-1.4-0.5c-0.4-0.2-0.8-0.5-1.1-0.8c-0.3-0.3-0.5-0.7-0.7-1.2c-0.2-0.4-0.3-1-0.3-1.5   c0-1.2,0.5-2.2,1.4-3c0.9-0.8,2.1-1.2,3.6-1.2c0.8,0,1.6,0.1,2.4,0.3c0.7,0.2,1.4,0.4,2.1,0.7v2.4h-0.1c-0.5-0.4-1.1-0.8-1.8-1.1   c-0.7-0.3-1.5-0.5-2.3-0.5c-0.9,0-1.7,0.2-2.2,0.6c-0.6,0.4-0.8,1-0.8,1.7c0,0.6,0.2,1.1,0.5,1.5c0.3,0.4,0.8,0.6,1.5,0.8   c0.4,0.1,0.9,0.2,1.5,0.4c0.6,0.1,1.1,0.3,1.5,0.4c1,0.3,1.8,0.8,2.3,1.4c0.5,0.6,0.7,1.4,0.7,2.3c0,0.6-0.1,1.2-0.4,1.7   c-0.2,0.6-0.6,1-1,1.4c-0.5,0.4-1,0.8-1.6,1C341.5,128.3,340.8,128.5,339.9,128.5z"/>
</g>
</svg>